<?xml version="1.0" encoding="UTF-8" standalone="no"?>
<!-- Generator: Adobe Illustrator 19.0.0, SVG Export Plug-In . SVG Version: 6.00 Build 0)  -->

<svg
		xmlns:inkscape="http://www.inkscape.org/namespaces/inkscape"
		xmlns:sodipodi="http://sodipodi.sourceforge.net/DTD/sodipodi-0.dtd"
		version="1.1"
		id="Layer_1"
		x="0px"
		y="0px"
		viewBox="0 0 40 40"
		xml:space="preserve"
		sodipodi:docname="pluginIcon.svg"
		width="40"
		height="40"
		inkscape:version="1.1 (c68e22c387, 2021-05-23)"
		xmlns="http://www.w3.org/2000/svg"
><defs
   id="defs69" />
	<sodipodi:namedview
			id="namedview67"
			pagecolor="#ffffff"
			bordercolor="#666666"
			borderopacity="1.0"
			inkscape:pageshadow="2"
			inkscape:pageopacity="0.0"
			inkscape:pagecheckerboard="false"
			showgrid="false"
			inkscape:zoom="21.125"
			inkscape:cx="24.094675"
			inkscape:cy="15.621302"
			inkscape:window-width="2560"
			inkscape:window-height="1494"
			inkscape:window-x="-11"
			inkscape:window-y="-11"
			inkscape:window-maximized="1"
			inkscape:current-layer="Layer_1"/>
	<path
			style="fill:#21d0c3;stroke-width:0.0703125"
			d="m 20,2 c 9.941203,0 18,8.058867 18,18 0,9.941203 -8.058797,18 -18,18 C 10.058867,38 2,29.941203 2,20 2,10.058867 10.058867,2 20,2 Z"
			id="path2"/>
	<path
			style="fill:#fefefe;stroke-width:0.0703125"
			d="m 20.611437,6.1492109 h 1.14068 c 0.484875,0 0.925735,0.1982813 1.244953,0.5175703 0.319149,0.3191485 0.517571,0.7600079 0.517571,1.2448829 v 6.7597739 c 0,2.551007 -1.67175,4.183804 -3.810446,4.896351 -0.819632,0.272953 -1.708242,0.409852 -2.595867,0.410063 -0.887555,2.81e-4 -1.775812,-0.135985 -2.594883,-0.409079 -2.133703,-0.711211 -3.799898,-2.34225 -3.799898,-4.897335 V 7.9115938 c 0,-0.484875 0.198281,-0.9256641 0.51757,-1.2448829 h 9.85e-4 C 11.551461,6.3475625 11.991828,6.1491406 12.47607,6.1491406 h 1.14068 v 0.4699688 h -1.14068 c -0.35557,0 -0.678726,0.1454062 -0.913148,0.3793359 l 4.22e-4,4.922e-4 c -0.234211,0.2342812 -0.379758,0.5575078 -0.379758,0.9126563 v 6.7597732 c 0,2.318274 1.524586,3.802289 3.476812,4.453102 0.771329,0.256992 1.609383,0.385312 2.44793,0.385242 0.838547,-1.41e-4 1.676883,-0.129094 2.448914,-0.386297 1.95743,-0.652219 3.48736,-2.137851 3.48736,-4.452047 V 7.9115937 c 0,-0.3551484 -0.145547,-0.6783046 -0.379758,-0.9126562 C 22.430563,6.7646562 22.107266,6.6191094 21.752117,6.6191094 h -1.14068 z"
			id="path4"/>
	<path
			style="fill:#4d4d4d;stroke-width:0.0703125"
			d="m 23.671227,13.638688 v 1.032679 c 0,2.629899 -1.719,4.311774 -3.918235,5.0445 -0.835383,0.278297 -1.740726,0.417727 -2.644804,0.417938 -0.903938,2.81e-4 -1.809,-0.138727 -2.643891,-0.416953 -2.194102,-0.731461 -3.907547,-2.411368 -3.907547,-5.045485 v -1.032679 h 0.783281 v 1.032679 c 0,2.239313 1.477336,3.67432 3.369164,4.304883 0.755438,0.251859 1.576758,0.377578 2.398922,0.377367 0.822164,-1.4e-4 1.643766,-0.126351 2.399906,-0.378351 1.896961,-0.631969 3.379711,-2.068735 3.379711,-4.303899 v -1.03268 z"
			id="path6"/>
	<circle
			style="fill:#ebecec;stroke-width:0.0703125"
			cx="27.273687"
			cy="24.28632"
			id="circle8"
			r="2.1690705"/>
	<circle
			style="fill:#0f7986;stroke-width:0.0703125"
			cx="27.273687"
			cy="24.28632"
			id="circle10"
			r="1.8926015"/>
	<circle
			style="fill:#076673;stroke-width:0.0703125"
			cx="27.273687"
			cy="24.28632"
			id="circle12"
			r="1.4898515"/>
	<circle
			style="fill:#ebecec;stroke-width:0.0703125"
			cx="27.273687"
			cy="24.28632"
			id="circle14"
			r="1.1305547"/>
	<rect
			x="26.971203"
			y="25.051954"
			style="fill:#fefefe;stroke-width:0.0703125"
			width="0.6059531"
			height="1.8873985"
			id="rect16"/>
	<path
			style="fill:#4d4d4d;stroke-width:0.0703125"
			d="m 27.728891,26.797531 v 1.892883 c 0,1.484578 -0.591891,2.895047 -1.640532,3.943688 -1.048781,1.048851 -2.459179,1.640601 -3.943828,1.640601 -1.484719,0 -2.895469,-0.591047 -3.94439,-1.639828 -1.048852,-1.048992 -1.639969,-2.459883 -1.639969,-3.944461 v -7.861781 h 0.909914 v 7.861851 c 0,1.243055 0.495351,2.423039 1.373414,3.300961 0.878062,0.877993 2.058117,1.373414 3.300961,1.373414 1.242773,0 2.422687,-0.496125 3.300539,-1.373906 0.877922,-0.877851 1.373977,-2.057695 1.373977,-3.300469 v -1.892882 z"
			id="path18"/>
	<g
			id="g24"
			transform="matrix(0.0703125,0,0,0.0703125,2,2)">
	<path
			style="fill:#076673"
			d="m 152.07,57.6 h 8.676 c 1.626,-2.765 4.63,-4.621 8.067,-4.621 5.163,0 9.35,4.187 9.35,9.35 0,5.164 -4.187,9.35 -9.35,9.35 -3.438,0 -6.441,-1.857 -8.067,-4.622 h -8.676 z"
			id="path20"/>
		<path
				style="fill:#076673"
				d="m 271.313,57.6 h -8.676 c -1.625,-2.765 -4.629,-4.621 -8.066,-4.621 -5.164,0 -9.35,4.187 -9.35,9.35 0,5.164 4.186,9.35 9.35,9.35 3.438,0 6.442,-1.857 8.066,-4.622 h 8.676 z"
				id="path22"/>
</g>
	<path
			style="fill:#666666;stroke-width:0.0703125"
			d="m 17.477258,20.121711 v 1.172742 h -0.924539 v -1.184344 c 0.179508,0.01596 0.359719,0.02384 0.54,0.02377 0.12825,-1.41e-4 0.25664,-0.0042 0.384539,-0.01216 z"
			id="path26"/>
	<g
			id="g32"
			transform="matrix(0.0703125,0,0,0.0703125,2,2)">
	<circle
			style="fill:#0f7986"
			cx="167.50301"
			cy="58.674999"
			r="2.8280001"
			id="circle28"/>
		<circle
				style="fill:#0f7986"
				cx="253.166"
				cy="58.674999"
				r="2.8280001"
				id="circle30"/>
</g>
	<circle
			style="fill:#fefefe;stroke-width:0.0703125"
			cx="27.212656"
			cy="24.224586"
			id="circle34"
			r="1.06875"/>
	<g
			id="g36"
			transform="matrix(0.0703125,0,0,0.0703125,2,2)">
</g>
	<g
			id="g38"
			transform="matrix(0.0703125,0,0,0.0703125,2,2)">
</g>
	<g
			id="g40"
			transform="matrix(0.0703125,0,0,0.0703125,2,2)">
</g>
	<g
			id="g42"
			transform="matrix(0.0703125,0,0,0.0703125,2,2)">
</g>
	<g
			id="g44"
			transform="matrix(0.0703125,0,0,0.0703125,2,2)">
</g>
	<g
			id="g46"
			transform="matrix(0.0703125,0,0,0.0703125,2,2)">
</g>
	<g
			id="g48"
			transform="matrix(0.0703125,0,0,0.0703125,2,2)">
</g>
	<g
			id="g50"
			transform="matrix(0.0703125,0,0,0.0703125,2,2)">
</g>
	<g
			id="g52"
			transform="matrix(0.0703125,0,0,0.0703125,2,2)">
</g>
	<g
			id="g54"
			transform="matrix(0.0703125,0,0,0.0703125,2,2)">
</g>
	<g
			id="g56"
			transform="matrix(0.0703125,0,0,0.0703125,2,2)">
</g>
	<g
			id="g58"
			transform="matrix(0.0703125,0,0,0.0703125,2,2)">
</g>
	<g
			id="g60"
			transform="matrix(0.0703125,0,0,0.0703125,2,2)">
</g>
	<g
			id="g62"
			transform="matrix(0.0703125,0,0,0.0703125,2,2)">
</g>
	<g
			id="g64"
			transform="matrix(0.0703125,0,0,0.0703125,2,2)">
</g>
</svg>
